<svg xmlns="http://www.w3.org/2000/svg" xmlns:xlink="http://www.w3.org/1999/xlink" viewBox="0,0,256,256" width="500px" height="500px"><g fill="none" fill-rule="nonzero" stroke="none" stroke-width="1" stroke-linecap="butt" stroke-linejoin="miter" stroke-miterlimit="10" stroke-dasharray="" stroke-dashoffset="0" font-family="none" font-weight="none" font-size="none" text-anchor="none" style="mix-blend-mode: normal"><g transform="scale(2.56,2.56)"><path d="M77,12c-0.55228,0 -1,0.44772 -1,1c0,0.55228 0.44772,1 1,1c0.55228,0 1,-0.44772 1,-1c0,-0.55228 -0.44772,-1 -1,-1z" fill="#f1bc19"></path><path d="M50,13c-20.43454,0 -37,16.56546 -37,37c0,20.43454 16.56546,37 37,37c20.43454,0 37,-16.56546 37,-37c0,-20.43454 -16.56546,-37 -37,-37z" fill="#ffff00"></path><path d="M83,11c-2.20914,0 -4,1.79086 -4,4c0,2.20914 1.79086,4 4,4c2.20914,0 4,-1.79086 4,-4c0,-2.20914 -1.79086,-4 -4,-4z" fill="#f1bc19"></path><path d="M87,22c-1.10457,0 -2,0.89543 -2,2c0,1.10457 0.89543,2 2,2c1.10457,0 2,-0.89543 2,-2c0,-1.10457 -0.89543,-2 -2,-2z" fill="#00a5a5"></path><path d="M81,74c-1.10457,0 -2,0.89543 -2,2c0,1.10457 0.89543,2 2,2c1.10457,0 2,-0.89543 2,-2c0,-1.10457 -0.89543,-2 -2,-2zM15,59c-2.20914,0 -4,1.79086 -4,4c0,2.20914 1.79086,4 4,4c2.20914,0 4,-1.79086 4,-4c0,-2.20914 -1.79086,-4 -4,-4z" fill="#fbcd59"></path><path d="M25,85c-1.10457,0 -2,0.89543 -2,2c0,1.10457 0.89543,2 2,2c1.10457,0 2,-0.89543 2,-2c0,-1.10457 -0.89543,-2 -2,-2z" fill="#00a5a5"></path><path d="M18.5,49c-1.38071,0 -2.5,1.11929 -2.5,2.5c0,1.38071 1.11929,2.5 2.5,2.5c1.38071,0 2.5,-1.11929 2.5,-2.5c0,-1.38071 -1.11929,-2.5 -2.5,-2.5zM79.5,32c-0.82843,0 -1.5,0.67157 -1.5,1.5c0,0.82843 0.67157,1.5 1.5,1.5c0.82843,0 1.5,-0.67157 1.5,-1.5c0,-0.82843 -0.67157,-1.5 -1.5,-1.5z" fill="#f55376"></path><g><path d="M25,44.6v22.4h27v1h23v-23.4z" fill="#e7e7e7"></path><path d="M30.375,67c0,0 0,-9.446 0,-12c0,-2.554 2.071,-4.625 4.625,-4.625c2.554,0 4.625,2.071 4.625,4.625c0,1.364 0,12 0,12z" fill="#b2b1c2"></path><path d="M25,44.6v1.4h27v1h23v-2.4z" fill="#cdcbbd"></path><path d="M73.353,30.9h-45.767l-4.604,13.2h54.053z" fill="#f55376"></path><path d="M25.4,44h-1.4v23.5c0,0.276 0.224,0.5 0.5,0.5h27.5v-1.4h-26.6z" fill="#472b29"></path><path d="M74.6,44v23.6h-22.2v-23.6h-1.4v24.5c0,0.276 0.224,0.5 0.5,0.5h24c0.276,0 0.5,-0.224 0.5,-0.5v-24.5z" fill="#472b29"></path><path d="M72.973,31.4l3.404,12.2h-52.691l4.255,-12.2l45.032,0M73.498,30h-46.047c-0.301,0 -0.569,0.189 -0.668,0.471l-4.744,13.6c-0.158,0.455 0.182,0.929 0.668,0.929h54.586c0.467,0 0.805,-0.441 0.681,-0.887l-3.795,-13.6c-0.085,-0.303 -0.363,-0.513 -0.681,-0.513z" fill="#472b29"></path><path d="M63.625,34h-34.25c-0.207,0 -0.375,-0.168 -0.375,-0.375c0,-0.207 0.168,-0.375 0.375,-0.375h34.25c0.207,0 0.375,0.168 0.375,0.375c0,0.207 -0.168,0.375 -0.375,0.375zM62.625,36h-33.75c-0.207,0 -0.375,-0.168 -0.375,-0.375c0,-0.207 0.168,-0.375 0.375,-0.375h33.75c0.207,0 0.375,0.168 0.375,0.375c0,0.207 -0.168,0.375 -0.375,0.375zM61.625,38h-33.25c-0.207,0 -0.375,-0.168 -0.375,-0.375c0,-0.207 0.168,-0.375 0.375,-0.375h33.25c0.207,0 0.375,0.168 0.375,0.375c0,0.207 -0.168,0.375 -0.375,0.375z" fill="#472b29"></path><path d="M71,27.25c-0.349,0 -4.649,0 -5,0c-0.414,0 -0.75,0.336 -0.75,0.75c0,0.414 0.336,0.75 0.75,0.75c0.351,0 4.651,0 5,0c0.414,0 0.75,-0.336 0.75,-0.75c0,-0.414 -0.336,-0.75 -0.75,-0.75z" fill="#fbb97f"></path><path d="M71,29h-5c-0.551,0 -1,-0.449 -1,-1c0,-0.551 0.449,-1 1,-1h5c0.551,0 1,0.449 1,1c0,0.551 -0.449,1 -1,1zM66,27.5c-0.276,0 -0.5,0.224 -0.5,0.5c0,0.276 0.224,0.5 0.5,0.5h5c0.276,0 0.5,-0.224 0.5,-0.5c0,-0.276 -0.224,-0.5 -0.5,-0.5z" fill="#472b29"></path><path d="M70.75,37.75h-4.5v-9h4.625z" fill="#fdd4b2"></path><path d="M70.75,38h-4.5c-0.138,0 -0.25,-0.112 -0.25,-0.25v-9c0,-0.138 0.112,-0.25 0.25,-0.25h4.625c0.067,0 0.131,0.027 0.178,0.074c0.047,0.048 0.073,0.112 0.072,0.179l-0.125,9c-0.002,0.137 -0.113,0.247 -0.25,0.247zM66.5,37.5h4.003l0.118,-8.5h-4.121zM74.875,47.5h-17.625c-0.138,0 -0.25,-0.112 -0.25,-0.25c0,-0.138 0.112,-0.25 0.25,-0.25h17.625c0.138,0 0.25,0.112 0.25,0.25c0,0.138 -0.112,0.25 -0.25,0.25zM55.75,47.5h-1.5c-0.138,0 -0.25,-0.112 -0.25,-0.25c0,-0.138 0.112,-0.25 0.25,-0.25h1.5c0.138,0 0.25,0.112 0.25,0.25c0,0.138 -0.112,0.25 -0.25,0.25zM43.75,46.5h-18.625c-0.138,0 -0.25,-0.112 -0.25,-0.25c0,-0.138 0.112,-0.25 0.25,-0.25h18.625c0.138,0 0.25,0.112 0.25,0.25c0,0.138 -0.112,0.25 -0.25,0.25zM47.75,46.5h-1.5c-0.138,0 -0.25,-0.112 -0.25,-0.25c0,-0.138 0.112,-0.25 0.25,-0.25h1.5c0.138,0 0.25,0.112 0.25,0.25c0,0.138 -0.112,0.25 -0.25,0.25z" fill="#472b29"></path><path d="M68.625,54.375v8.25h-10.25v-11.25h8.25z" fill="#ffff00"></path><path d="M68.625,63h-10.25c-0.207,0 -0.375,-0.168 -0.375,-0.375v-11.25c0,-0.207 0.168,-0.375 0.375,-0.375h8.25c0.207,0 0.375,0.168 0.375,0.375c0,0.207 -0.168,0.375 -0.375,0.375h-7.875v10.5h9.5v-7.875c0,-0.207 0.168,-0.375 0.375,-0.375c0.207,0 0.375,0.168 0.375,0.375v8.25c0,0.207 -0.168,0.375 -0.375,0.375z" fill="#472b29"></path><path d="M63.5,63c-0.207,0 -0.375,-0.168 -0.375,-0.375v-11.25c0,-0.207 0.168,-0.375 0.375,-0.375c0.207,0 0.375,0.168 0.375,0.375v11.25c0,0.207 -0.168,0.375 -0.375,0.375z" fill="#472b29"></path><path d="M48.625,56.625l0.003,-5.25h-6.25l-0.003,7.25h5.25z" fill="#ffff00"></path><path d="M47.625,59h-5.25c-0.1,0 -0.195,-0.04 -0.265,-0.11c-0.07,-0.07 -0.11,-0.166 -0.11,-0.265l0.003,-7.25c0,-0.207 0.168,-0.375 0.375,-0.375h6.25c0.1,0 0.195,0.04 0.265,0.11c0.07,0.07 0.11,0.166 0.11,0.265l-0.003,5.25c0,0.207 -0.168,0.375 -0.375,0.375v0c-0.208,0 -0.375,-0.168 -0.375,-0.375l0.003,-4.875h-5.5l-0.003,6.5h4.875c0.207,0 0.375,0.168 0.375,0.375c0,0.207 -0.168,0.375 -0.375,0.375z" fill="#472b29"></path><path d="M45.503,58.987c-0.207,0 -0.375,-0.168 -0.375,-0.375v-7.237c0,-0.207 0.168,-0.375 0.375,-0.375c0.207,0 0.375,0.168 0.375,0.375v7.237c0,0.207 -0.168,0.375 -0.375,0.375zM39.625,67.375c-0.207,0 -0.375,-0.168 -0.375,-0.375v-12c0,-2.343 -1.907,-4.25 -4.25,-4.25c-2.343,0 -4.25,1.907 -4.25,4.25v12c0,0.207 -0.168,0.375 -0.375,0.375c-0.207,0 -0.375,-0.168 -0.375,-0.375v-12c0,-2.757 2.243,-5 5,-5c2.757,0 5,2.243 5,5v12c0,0.207 -0.168,0.375 -0.375,0.375z" fill="#472b29"></path><path d="M37.75,56c0,0.547 0,1.75 0,1.75h-5.5c0,0 0,-0.231 0,-1.75c0,-1.519 1.231,-2.75 2.75,-2.75c1.519,0 2.75,1.231 2.75,2.75z" fill="#ffff00"></path><path d="M37.75,58h-5.5c-0.138,0 -0.25,-0.112 -0.25,-0.25v-1.75c0,-1.654 1.346,-3 3,-3c1.654,0 3,1.346 3,3v1.75c0,0.138 -0.112,0.25 -0.25,0.25zM32.5,57.5h5v-1.5c0,-1.378 -1.122,-2.5 -2.5,-2.5c-1.378,0 -2.5,1.122 -2.5,2.5zM37.75,61h-0.5c-0.138,0 -0.25,-0.112 -0.25,-0.25c0,-0.138 0.112,-0.25 0.25,-0.25h0.5c0.138,0 0.25,0.112 0.25,0.25c0,0.138 -0.112,0.25 -0.25,0.25z" fill="#472b29"></path></g></g></g></svg>